<?xml version="1.0" standalone="no"?>
<!DOCTYPE svg PUBLIC "-//W3C//DTD SVG 20010904//EN"
 "http://www.w3.org/TR/2001/REC-SVG-20010904/DTD/svg10.dtd">
<svg version="1.0" xmlns="http://www.w3.org/2000/svg"
 width="512.000000pt" height="512.000000pt" viewBox="0 0 512.000000 512.000000"
 preserveAspectRatio="xMidYMid meet">

<g transform="translate(0.000000,512.000000) scale(0.100000,-0.100000)"
fill="#000000" stroke="none">
<path d="M2980 4399 c-58 -5 -119 -11 -137 -14 -36 -6 -50 -33 -33 -65 10 -18
20 -20 138 -20 l128 0 3 -400 2 -400 -30 -26 c-17 -14 -46 -51 -64 -83 -30
-51 -37 -56 -72 -59 -34 -3 -37 -2 -26 12 9 10 11 28 7 50 -4 19 -2 63 3 98 6
35 11 188 12 341 1 234 3 277 15 277 8 0 17 -7 20 -15 9 -22 61 -19 74 5 30
57 -31 103 -145 111 -79 5 -612 5 -695 0 -70 -5 -96 -22 -79 -52 8 -15 46 -18
346 -23 186 -3 350 -8 366 -10 15 -2 32 -4 38 -5 5 0 7 -5 4 -11 -6 -9 -7 -36
-20 -320 -4 -74 -8 -146 -10 -160 -1 -14 -6 -59 -10 -100 -3 -41 -8 -82 -11
-91 -4 -14 -42 -17 -307 -24 -166 -4 -314 -8 -329 -10 -22 -3 -28 2 -32 23
-10 43 -27 181 -32 252 -2 36 -9 112 -14 170 -6 58 -12 182 -15 275 -6 200
-13 219 -84 221 -43 1 -144 -43 -209 -93 l-32 -24 -223 7 c-265 8 -342 -1
-415 -49 -41 -28 -48 -38 -54 -77 -12 -79 -28 -371 -28 -513 0 -118 3 -145 21
-187 33 -77 72 -91 245 -91 75 1 154 -2 174 -5 l37 -6 -4 -82 c-8 -152 -32
-276 -88 -442 -30 -89 -55 -167 -55 -173 0 -7 12 -23 26 -36 21 -19 38 -25 73
-25 25 0 70 -3 99 -7 62 -7 60 10 22 -160 l-23 -101 -116 -7 c-113 -6 -152
-12 -276 -40 -33 -8 -72 -16 -87 -19 -15 -2 -33 -8 -39 -12 -20 -12 -39 -73
-46 -148 -10 -122 22 -166 107 -147 21 5 41 7 43 5 2 -3 0 -21 -4 -42 -5 -20
-20 -84 -33 -142 -37 -164 -48 -248 -62 -473 -7 -121 5 -234 32 -287 25 -50
92 -107 175 -147 102 -50 227 -93 268 -93 24 0 36 -8 61 -45 37 -54 52 -58
221 -54 68 2 465 2 881 1 751 -2 884 1 923 21 11 6 26 12 34 13 51 9 60 70 60
447 l1 267 34 0 c22 0 45 9 62 24 l28 23 -14 145 c-7 80 -10 157 -6 171 11 47
63 95 122 114 29 9 56 15 58 12 9 -9 39 -510 43 -735 4 -160 2 -238 -6 -252
-14 -27 -128 -62 -198 -62 -70 0 -104 -38 -67 -75 20 -20 124 -19 192 1 23 6
42 10 42 8 0 -3 17 4 39 15 55 29 89 73 97 128 13 89 -13 499 -46 718 -4 33
-12 97 -15 142 -6 73 -5 84 15 110 15 21 24 56 32 126 11 90 10 98 -8 118 -36
41 -81 51 -231 55 -124 2 -146 0 -179 -17 -21 -10 -39 -19 -40 -19 -2 0 -6 26
-9 58 -7 54 -38 226 -51 277 -5 22 -3 23 66 27 101 5 106 13 116 175 5 71 8
207 9 305 l0 176 30 16 c31 17 87 125 140 273 30 82 72 363 80 528 3 66 8 147
11 180 5 56 3 62 -21 85 -25 23 -28 24 -88 13 -95 -18 -119 -23 -152 -33 -16
-5 -61 -16 -100 -24 -67 -14 -134 -29 -145 -31 -30 -7 -149 -18 -199 -19 -67
-1 -91 -16 -78 -50 5 -14 24 -16 124 -16 66 0 153 7 198 16 44 8 93 17 108 19
16 2 43 7 60 11 18 4 34 8 37 9 3 1 30 5 60 9 30 5 65 12 78 17 l24 9 -7 -92
c-20 -299 -69 -570 -124 -690 -16 -34 -33 -76 -37 -93 -4 -16 -12 -33 -18 -38
-14 -9 -225 -7 -274 3 -66 15 -251 40 -294 40 -35 0 -59 -46 -40 -77 8 -13
359 -66 457 -68 17 -1 43 -2 59 -3 l29 -2 -7 -132 c-4 -73 -9 -169 -12 -213
-2 -44 -7 -106 -10 -139 l-6 -59 -377 7 c-207 3 -648 9 -981 12 -333 3 -612 8
-620 11 -8 3 -53 7 -100 8 -138 3 -129 -1 -119 43 4 20 22 77 38 126 37 106
61 270 61 406 l0 100 75 0 c70 0 78 -2 100 -27 l23 -28 154 2 c165 1 203 10
217 47 6 14 20 25 36 28 14 3 158 3 320 0 272 -4 295 -6 295 -22 0 -10 8 -27
18 -39 14 -18 29 -22 87 -23 41 -1 79 3 93 11 13 7 41 40 63 74 22 34 54 74
71 88 42 35 47 79 48 414 1 557 2 533 -20 555 -11 11 -30 19 -42 19 -13 -1
-70 -6 -128 -10z m-999 -361 c1 -273 13 -461 41 -606 5 -30 8 -56 5 -58 -3 -3
-30 -8 -60 -11 l-56 -6 -6 39 c-13 76 -73 291 -109 394 -13 36 -38 112 -56
169 l-33 105 52 48 c49 45 54 47 119 50 61 3 67 5 70 26 2 14 -3 25 -13 29
-15 5 -14 8 6 19 13 7 27 13 32 14 4 0 7 -96 8 -212z m-342 96 c-37 -39 -32
-130 14 -254 75 -205 130 -366 147 -437 l8 -33 -317 0 c-270 0 -320 2 -339 16
-22 15 -22 16 -22 338 0 358 -4 337 68 366 33 13 201 26 371 28 l94 2 -24 -26z
m331 -1619 c74 -2 268 -10 430 -17 162 -7 484 -13 716 -13 383 0 420 -1 417
-16 -3 -9 5 -72 16 -140 33 -202 57 -819 31 -819 -5 0 -17 -11 -26 -25 -16
-25 -16 -27 11 -55 l28 -29 -7 -323 c-4 -177 -9 -324 -11 -326 -3 -3 -1204
-15 -1715 -16 l-165 -1 2 23 c4 33 -14 62 -37 62 -11 0 -20 2 -20 5 0 3 -13
67 -29 143 -36 170 -43 236 -45 384 l-2 118 35 5 c82 13 96 20 96 45 0 24 -3
25 -64 28 l-64 3 7 97 c14 216 17 250 26 312 5 36 12 101 16 145 5 61 11 83
25 93 22 15 24 34 7 61 -12 19 -8 50 24 209 l13 63 75 -6 c41 -3 136 -7 210
-10z m-430 -344 c0 -11 -4 -41 -10 -68 -5 -26 -15 -82 -22 -123 l-11 -75 -9
40 c-12 58 -27 65 -142 65 -71 1 -107 5 -119 15 -17 12 -24 11 -55 -5 -21 -10
-49 -22 -64 -26 -28 -6 -28 -6 -28 42 0 70 8 91 38 102 48 18 148 34 254 42
173 12 168 12 168 -9z m2468 -97 c21 -6 23 -11 20 -63 l-3 -56 -66 -6 c-80 -7
-124 -26 -173 -76 -62 -64 -70 -91 -63 -223 4 -63 10 -132 13 -152 6 -34 4
-38 -15 -38 -15 0 -21 6 -21 23 -1 69 -31 506 -36 526 -5 17 -4 22 5 17 18
-12 47 2 59 29 11 25 13 25 134 25 68 0 133 -3 146 -6z m-2598 -161 c0 -10
-10 -47 -21 -83 -17 -50 -21 -90 -21 -175 0 -137 16 -182 67 -199 19 -5 20
-14 17 -110 -2 -58 2 -137 8 -178 7 -40 14 -93 17 -118 2 -25 15 -83 29 -130
29 -103 29 -103 2 -95 -66 20 -237 91 -266 111 -40 26 -77 75 -94 123 -14 40
-17 265 -6 376 13 125 64 434 78 470 9 24 13 25 100 25 79 0 90 -2 90 -17z
m76 -105 c-3 -29 -8 -100 -12 -158 -3 -58 -10 -109 -15 -115 -10 -10 -13 25
-10 125 2 62 29 200 39 200 2 0 2 -24 -2 -52z"/>
<path d="M3125 1993 c-25 -3 -153 -23 -315 -49 -19 -3 -46 -7 -60 -9 -14 -2
-68 -10 -120 -18 -111 -18 -229 -27 -393 -31 -66 -2 -123 -8 -129 -14 -6 -6
-8 -22 -4 -36 l6 -26 128 0 c117 0 374 14 432 24 26 4 94 13 178 22 26 3 128
15 227 28 99 12 187 20 196 18 19 -4 27 -70 29 -238 l1 -112 -28 -7 c-15 -4
-203 -6 -417 -6 -526 2 -772 18 -861 56 -53 22 -66 51 -63 141 l3 79 42 10
c57 14 70 27 55 60 -10 21 -18 25 -54 25 -55 0 -87 -17 -115 -59 -19 -28 -23
-47 -23 -111 0 -106 7 -133 45 -178 l33 -38 0 -175 c-1 -331 36 -409 207 -442
94 -18 218 -22 770 -22 480 0 521 3 552 40 21 24 23 36 23 138 0 62 -5 144
-11 182 -5 39 -12 84 -14 100 -17 131 -29 184 -46 207 -17 24 -19 45 -18 192
0 200 -8 241 -52 250 -32 6 -151 6 -204 -1z m-975 -529 c52 -7 138 -14 190
-14 52 0 118 -3 147 -6 48 -6 51 -8 42 -27 -6 -11 -13 -64 -16 -118 -5 -80 -3
-103 10 -123 21 -32 72 -46 163 -46 56 0 77 4 95 19 23 19 24 23 23 159 l-2
141 252 3 c138 2 258 6 266 8 11 4 16 -7 21 -45 3 -27 11 -90 18 -140 6 -49
12 -134 14 -187 l2 -97 -35 -4 c-19 -3 -303 -4 -630 -3 -566 1 -597 2 -632 20
-60 31 -75 89 -85 335 l-6 154 34 -7 c19 -4 77 -14 129 -22z m567 -89 c6 -38
12 -91 12 -117 l1 -48 -70 0 -70 0 -1 73 c-1 39 -1 89 0 110 2 25 -2 37 -11
38 -23 3 66 17 97 15 29 -1 30 -3 42 -71z"/>
</g>
</svg>
