<?xml version="1.0" standalone="no"?>
<!DOCTYPE svg PUBLIC "-//W3C//DTD SVG 20010904//EN"
 "http://www.w3.org/TR/2001/REC-SVG-20010904/DTD/svg10.dtd">
<svg version="1.0" xmlns="http://www.w3.org/2000/svg"
 width="512.000000pt" height="512.000000pt" viewBox="0 0 512.000000 512.000000"
 preserveAspectRatio="xMidYMid meet">

<g transform="translate(0.000000,512.000000) scale(0.100000,-0.100000)"
fill="#000000" stroke="none">
<path d="M3693 4325 c-29 -7 -53 -11 -53 -9 0 5 -154 -53 -191 -71 -172 -89
-294 -237 -306 -373 -6 -66 7 -102 37 -102 26 0 35 17 36 75 2 64 31 123 97
193 109 115 289 188 492 199 173 9 297 -30 383 -121 129 -136 159 -454 69
-714 -32 -89 -62 -140 -117 -198 -52 -54 -98 -79 -186 -100 -59 -13 -74 -13
-150 1 -46 9 -105 25 -131 36 -78 33 -173 82 -184 95 -13 16 252 290 324 335
98 61 112 83 81 124 -13 18 -32 20 -187 27 -95 4 -259 3 -367 -3 -107 -5 -238
-12 -290 -14 -52 -3 -129 -7 -170 -10 -148 -11 -295 -14 -958 -21 -713 -7
-702 -7 -687 -54 5 -17 15 -20 68 -20 34 0 103 -2 152 -5 606 -29 1470 -37
1770 -16 88 7 223 15 299 18 l139 6 -169 -170 c-93 -93 -218 -223 -279 -289
-60 -65 -155 -166 -210 -224 -111 -117 -189 -212 -257 -310 -24 -36 -75 -110
-113 -165 -37 -55 -71 -104 -76 -109 -13 -15 -88 55 -264 249 -436 481 -647
654 -960 786 -55 23 -104 46 -109 50 -17 15 -72 10 -88 -8 -25 -30 -29 -52
-14 -88 15 -35 42 -55 75 -55 27 0 220 -99 311 -159 178 -118 366 -286 709
-634 192 -194 267 -264 305 -282 72 -35 102 -25 141 46 32 56 146 216 266 373
39 50 159 191 267 313 190 213 198 221 219 207 55 -35 116 -65 188 -94 375
-149 669 -16 784 355 47 151 50 408 5 561 -55 192 -154 304 -315 357 -63 21
-93 25 -204 25 -71 0 -154 -6 -182 -13z"/>
<path d="M2576 2151 c-4 -6 -9 -149 -12 -318 -3 -169 -7 -310 -9 -313 -2 -4
-5 -63 -6 -133 -1 -89 -5 -127 -14 -127 -6 0 -24 -14 -41 -31 -28 -30 -213
-129 -241 -129 -7 0 -21 -4 -31 -10 -22 -12 -132 -48 -307 -100 -77 -22 -158
-47 -180 -54 -22 -8 -94 -28 -160 -46 -133 -37 -145 -43 -145 -74 1 -52 -12
-51 427 -52 370 0 645 -8 698 -19 42 -8 358 -20 551 -20 185 0 204 2 223 19
46 42 20 104 -65 153 -21 13 -76 45 -122 73 -46 27 -86 50 -90 50 -3 0 -63 38
-133 85 -69 47 -136 85 -147 85 -27 0 -52 -26 -52 -55 0 -31 66 -89 215 -187
l120 -80 -250 7 c-137 4 -393 8 -567 9 -174 0 -311 4 -304 8 7 4 35 14 62 23
42 14 172 60 239 85 11 4 23 8 27 9 27 7 218 107 243 128 l30 26 8 -74 c11
-99 30 -119 76 -81 21 17 22 21 24 467 1 248 0 502 -3 565 l-5 115 -27 3 c-14
2 -29 -1 -32 -7z"/>
</g>
</svg>
