<?xml version="1.0" standalone="no"?>
<!DOCTYPE svg PUBLIC "-//W3C//DTD SVG 20010904//EN"
 "http://www.w3.org/TR/2001/REC-SVG-20010904/DTD/svg10.dtd">
<svg version="1.0" xmlns="http://www.w3.org/2000/svg"
 width="512.000000pt" height="512.000000pt" viewBox="0 0 512.000000 512.000000"
 preserveAspectRatio="xMidYMid meet">

<g transform="translate(0.000000,512.000000) scale(0.100000,-0.100000)"
fill="#000000" stroke="none">
<path d="M3575 3410 c-38 -4 -99 -11 -135 -14 -36 -4 -112 -13 -170 -21 -58
-8 -125 -17 -150 -19 -25 -2 -103 -11 -175 -20 -150 -18 -400 -44 -495 -51
-157 -11 -347 -27 -368 -30 -13 -2 -99 -7 -190 -10 -293 -12 -400 -20 -416
-34 -19 -16 -21 -42 -4 -59 17 -17 396 -15 728 3 146 8 315 17 375 20 61 3
180 12 266 20 86 8 190 17 230 20 41 3 133 12 204 20 72 8 171 17 220 20 50 3
130 8 179 11 l89 7 -7 -107 c-4 -59 -11 -128 -16 -155 -5 -26 -11 -68 -14 -92
-18 -149 -130 -584 -231 -899 -113 -352 -235 -490 -486 -550 -147 -34 -395
-32 -594 6 -198 38 -507 163 -688 280 -316 204 -434 373 -398 572 36 199 149
419 300 584 66 72 76 103 41 138 -37 37 -65 26 -147 -57 -128 -132 -212 -268
-273 -440 -81 -229 -80 -398 4 -557 70 -132 315 -347 516 -451 168 -87 252
-124 358 -157 45 -14 57 -28 20 -22 -85 14 -287 36 -381 42 -146 9 -570 9
-672 -1 -116 -10 -371 -68 -447 -100 -21 -9 -38 -14 -38 -11 0 11 -60 -28 -79
-52 -36 -45 -27 -93 22 -123 28 -16 185 -50 227 -49 8 0 130 -5 270 -12 340
-16 777 -16 1035 0 116 7 221 13 235 13 52 -2 745 54 825 67 28 4 71 8 96 9
25 1 95 8 155 15 60 8 118 12 129 10 11 -3 124 -8 250 -13 219 -8 232 -8 278
12 92 38 104 137 23 186 -62 38 -129 44 -402 37 -143 -3 -297 -9 -344 -12
l-85 -6 77 51 c84 56 138 112 189 195 l32 55 346 0 c190 1 359 4 376 7 50 9
127 57 158 99 45 61 93 171 111 255 19 88 53 301 61 380 11 118 23 514 15 534
-25 68 -67 68 -330 1 -30 -8 -68 -16 -83 -19 -15 -3 -52 -12 -81 -20 -29 -9
-70 -18 -90 -22 -21 -3 -59 -12 -84 -20 -54 -16 -86 -18 -77 -5 3 5 8 36 11
68 3 32 7 69 10 83 2 14 7 86 10 160 5 124 4 138 -15 167 -33 53 -64 66 -155
69 -44 1 -112 -1 -151 -6z m931 -562 c-3 -24 -10 -117 -16 -208 -5 -91 -14
-190 -20 -220 -6 -30 -13 -75 -16 -100 -9 -75 -54 -272 -76 -335 -26 -72 -63
-131 -101 -159 -27 -20 -42 -21 -348 -24 -224 -2 -319 0 -319 8 0 6 11 37 24
68 23 55 73 219 82 272 3 14 11 48 19 75 21 70 91 390 100 449 12 84 17 91 79
105 31 7 69 14 85 16 15 2 55 10 87 19 32 8 77 17 99 20 22 4 72 13 110 21 97
20 166 32 194 34 22 1 23 -2 17 -41z m-2746 -1568 c74 -5 185 -12 245 -16 61
-3 114 -10 119 -15 6 -5 1 -9 -15 -9 -13 0 -71 -4 -129 -10 -252 -23 -1100
-39 -1100 -21 0 6 6 12 13 12 41 4 59 8 122 22 184 42 475 56 745 37z"/>
<path d="M2943 1025 c-210 -99 -366 -129 -722 -141 -108 -3 -211 -9 -230 -13
-42 -8 -61 -33 -45 -58 10 -16 35 -18 275 -18 389 0 493 13 669 86 186 77 218
104 186 154 -22 33 -46 31 -133 -10z"/>
</g>
</svg>
