<?xml version="1.0" standalone="no"?>
<!DOCTYPE svg PUBLIC "-//W3C//DTD SVG 20010904//EN"
 "http://www.w3.org/TR/2001/REC-SVG-20010904/DTD/svg10.dtd">
<svg version="1.0" xmlns="http://www.w3.org/2000/svg"
 width="512.000000pt" height="512.000000pt" viewBox="0 0 512.000000 512.000000"
 preserveAspectRatio="xMidYMid meet">

<g transform="translate(0.000000,512.000000) scale(0.100000,-0.100000)"
fill="#000000" stroke="none">
<path d="M4173 3340 c-41 -17 -42 -86 0 -94 12 -2 58 -9 101 -15 44 -6 82 -14
85 -16 3 -3 -12 -22 -32 -43 -21 -20 -35 -29 -31 -19 3 9 1 24 -6 32 -29 34
-44 16 -114 -130 -38 -80 -72 -145 -76 -145 -4 0 -4 17 0 38 4 20 18 87 30
148 13 62 20 119 17 128 -9 22 -54 21 -61 -1 -3 -10 -8 -35 -12 -56 -3 -21 -9
-37 -13 -35 -3 2 -34 18 -68 35 -113 59 -199 77 -369 78 -150 0 -151 0 -188
-29 -54 -41 -93 -100 -117 -175 -19 -60 -20 -87 -18 -286 2 -121 3 -265 4
-320 l0 -100 -78 -3 c-76 -3 -77 -3 -88 25 -65 165 -120 252 -212 339 -80 77
-177 130 -298 164 -135 38 -378 25 -512 -27 -134 -52 -287 -177 -353 -289 -46
-79 -75 -182 -81 -291 -3 -57 -9 -103 -12 -103 -4 0 -18 8 -31 17 -82 58 -110
137 -117 333 -4 126 -2 161 20 268 13 68 25 159 26 201 2 71 0 81 -24 109 -42
50 -169 81 -369 91 l-129 6 -17 53 c-10 29 -25 61 -35 72 -25 27 -70 26 -89
-2 -21 -30 -21 -33 14 -70 17 -17 30 -37 30 -43 0 -12 -60 -27 -70 -18 -2 2
-3 22 -3 44 2 34 -2 41 -23 49 -36 14 -83 12 -161 -6 -37 -9 -75 -17 -83 -19
-132 -28 -352 -110 -385 -143 -31 -31 -31 -34 -1 -69 14 -16 39 -65 56 -109
36 -90 127 -265 144 -276 27 -18 117 6 198 52 10 6 28 10 41 10 12 0 33 7 46
16 13 9 39 21 60 26 69 17 235 38 241 31 7 -8 30 -172 30 -209 0 -18 -8 -19
-146 -16 -207 5 -314 -25 -414 -115 -57 -51 -77 -102 -63 -162 7 -30 14 -37
37 -39 38 -5 48 8 51 60 2 34 9 48 34 69 82 68 199 102 356 103 123 1 150 -6
169 -43 18 -35 41 -45 68 -30 21 11 21 34 3 119 -9 42 -25 152 -32 211 -5 51
-3 58 16 68 14 8 21 21 21 41 0 17 5 39 12 50 10 16 9 24 -8 47 -20 27 -44
103 -44 139 0 15 10 16 103 10 109 -7 243 -32 265 -49 16 -12 10 -94 -14 -207
-31 -150 -26 -423 11 -528 39 -111 102 -184 176 -206 l43 -13 27 -93 c59 -205
182 -373 328 -449 35 -19 81 -51 102 -72 60 -60 119 -73 324 -72 226 2 334 27
462 109 179 114 264 269 267 484 1 101 -4 161 -19 244 l-8 39 56 -6 c69 -7
123 7 141 36 11 17 15 94 20 332 7 329 14 381 60 454 45 70 55 74 169 74 118
-1 236 -27 336 -73 l64 -30 -6 -87 c-7 -98 -51 -265 -80 -304 -16 -23 -17 -29
-6 -47 18 -29 29 -30 244 -33 251 -4 380 -27 506 -90 84 -42 113 -71 138 -138
12 -32 28 -64 36 -71 19 -16 62 -5 69 18 9 27 -38 152 -73 194 -35 42 -138
103 -217 129 -92 30 -256 49 -430 49 l-166 0 6 23 c3 12 11 46 17 75 9 40 16
51 28 48 9 -3 75 -17 146 -31 72 -14 148 -29 170 -35 228 -56 379 -90 399 -90
14 0 28 6 33 13 4 6 9 66 9 132 2 102 8 159 38 310 26 139 23 143 -120 161
-169 21 -335 45 -379 54 -69 14 -179 20 -202 10z m385 -148 c21 -6 18 -10 -33
-45 -42 -28 -55 -33 -51 -20 3 10 8 30 12 46 6 28 23 32 72 19z m-3827 -47
c-19 -55 -31 -58 -31 -7 0 43 5 52 30 52 16 0 16 -3 1 -45z m4016 29 c30 -6
30 -6 20 -52 -9 -43 -14 -49 -63 -74 l-53 -26 21 54 c17 44 19 59 10 79 -11
23 -9 25 12 25 13 0 37 -3 53 -6z m-4191 -56 c-4 -13 -12 -44 -18 -70 -6 -27
-14 -48 -17 -48 -4 0 -6 29 -6 65 0 64 3 69 39 74 4 0 5 -9 2 -21z m-112 -56
c0 -18 -1 -87 -3 -154 l-2 -123 -36 70 c-31 60 -83 181 -83 192 0 7 105 52
115 49 6 -1 10 -17 9 -34z m484 -18 c-11 -23 -13 -24 -19 -7 -12 29 -10 33 11
33 17 0 18 -3 8 -26z m3381 -53 c-22 -42 -30 -67 -25 -85 8 -34 42 -43 71 -20
121 99 189 153 191 151 2 -1 -4 -24 -13 -51 -14 -43 -15 -52 -2 -75 18 -32 56
-38 98 -17 16 9 32 16 35 16 3 0 -15 -69 -28 -106 -3 -8 -23 -7 -68 3 -34 8
-126 25 -203 39 -77 13 -148 27 -157 30 -14 4 -4 21 54 90 39 46 72 84 74 84
2 0 -10 -27 -27 -59z m-3491 22 c0 -10 3 -50 7 -89 7 -69 7 -71 -16 -77 -29
-8 -69 -9 -69 -2 0 14 40 146 49 164 14 26 30 27 29 4z m200 -93 c-3 -39 -6
-44 -30 -47 -33 -4 -34 1 -8 63 25 56 43 49 38 -16z m-402 -125 c-5 -15 -65
-49 -72 -42 -9 9 16 57 30 57 7 0 20 7 27 17 13 15 14 15 17 -1 2 -9 1 -23 -2
-31z m2000 -56 c224 -69 346 -206 422 -471 23 -82 26 -112 26 -253 1 -153 0
-163 -27 -226 -34 -80 -73 -129 -149 -185 -107 -79 -249 -114 -460 -114 l-117
0 -3 28 c-3 26 -6 27 -61 30 -52 3 -59 6 -68 29 -5 15 -9 37 -7 50 l3 23 45
-30 c25 -16 77 -42 115 -57 64 -26 82 -28 200 -28 114 0 135 3 170 22 42 22
135 114 135 133 0 5 6 10 13 10 8 0 21 8 30 18 15 16 16 44 12 233 -2 118 -9
241 -14 274 -6 33 -11 90 -11 127 0 57 -3 68 -19 73 -11 3 -29 26 -41 49 -28
58 -107 131 -178 164 -50 24 -72 27 -184 30 -189 6 -290 -29 -393 -136 -108
-112 -155 -232 -155 -392 0 -98 23 -208 57 -274 9 -17 50 -64 92 -104 46 -45
71 -76 63 -79 -24 -9 -42 -35 -42 -59 l0 -25 -44 30 c-109 75 -208 248 -231
404 -7 44 -6 46 20 49 60 7 60 68 0 68 l-35 0 0 54 c0 243 162 450 415 529 71
23 85 24 226 26 104 1 140 -3 195 -20z m-243 -600 c2 -466 4 -479 52 -479 29
0 59 40 51 67 -3 10 -8 86 -11 168 -3 83 -10 236 -14 340 -5 105 -7 224 -6
265 l3 75 48 -3 c27 -1 61 -8 76 -14 l28 -10 -5 -222 c-3 -121 -7 -316 -10
-433 -3 -122 -1 -222 4 -236 5 -14 8 -27 6 -28 -2 -2 -45 -2 -97 1 -99 6 -175
33 -246 86 -31 25 -32 27 -17 44 17 19 17 59 -1 315 -2 33 -6 140 -9 239 -3
98 -8 182 -11 187 -3 5 -13 9 -22 9 -22 1 51 40 102 55 83 25 76 63 79 -426z
m-215 299 c-5 -35 -5 -187 -2 -339 4 -178 3 -278 -3 -282 -6 -4 -27 12 -47 34
-27 28 -43 38 -56 34 -27 -8 -58 81 -66 192 -7 100 10 192 50 271 24 46 110
152 125 152 4 0 4 -28 -1 -62z m581 -27 c11 -26 23 -60 26 -77 26 -131 34
-422 14 -514 -12 -57 -65 -143 -91 -148 -16 -3 -17 25 -18 414 l0 418 24 -23
c13 -13 34 -44 45 -70z"/>
</g>
</svg>
