<?xml version="1.0" standalone="no"?>
<!DOCTYPE svg PUBLIC "-//W3C//DTD SVG 20010904//EN"
 "http://www.w3.org/TR/2001/REC-SVG-20010904/DTD/svg10.dtd">
<svg version="1.0" xmlns="http://www.w3.org/2000/svg"
 width="512.000000pt" height="512.000000pt" viewBox="0 0 512.000000 512.000000"
 preserveAspectRatio="xMidYMid meet">

<g transform="translate(0.000000,512.000000) scale(0.100000,-0.100000)"
fill="#000000" stroke="none">
<path d="M3006 3617 c-43 -45 -101 -156 -218 -417 -136 -304 -348 -702 -482
-909 -24 -36 -61 -95 -83 -131 -85 -139 -298 -474 -311 -490 -4 -5 -17 10 -59
66 -137 185 -212 279 -306 386 -61 71 -117 139 -124 152 -10 20 -24 26 -68 31
-50 7 -59 5 -82 -16 -22 -21 -24 -30 -19 -72 5 -43 2 -53 -28 -95 -18 -26 -82
-119 -141 -207 -60 -88 -132 -192 -160 -232 -27 -40 -79 -115 -115 -168 -122
-182 -268 -385 -373 -518 -129 -165 -130 -166 -116 -207 20 -55 28 -55 239
-15 134 26 243 36 585 55 99 5 209 12 245 15 186 13 731 17 827 6 92 -11 106
-10 139 5 33 16 72 16 567 5 520 -11 610 -15 712 -30 53 -8 -547 -18 -1505
-27 -762 -6 -1262 -19 -1288 -33 -29 -15 -34 -49 -11 -72 18 -18 40 -19 496
-21 263 -2 516 -3 563 -2 74 0 491 -10 1250 -31 113 -3 414 -12 670 -20 256
-8 537 -15 625 -15 125 -1 164 -4 179 -15 35 -26 88 -19 139 20 62 48 77 105
42 159 -24 36 -64 46 -189 47 -91 2 -100 3 -52 8 44 5 63 12 77 30 24 29 24
32 -1 64 l-20 25 -257 6 c-513 13 -604 17 -725 34 -105 14 -211 17 -713 17
l-590 0 -63 95 c-34 52 -101 160 -149 240 -47 80 -97 159 -110 177 l-23 32
161 238 c264 391 451 674 489 743 20 36 64 112 97 170 103 180 180 330 233
455 28 66 61 142 73 169 l23 49 103 -209 c117 -238 134 -270 400 -722 56 -95
104 -179 107 -187 4 -8 -23 -83 -59 -167 -36 -84 -70 -165 -76 -180 -6 -16
-16 -28 -22 -28 -9 0 -163 126 -218 178 -36 35 -240 160 -481 295 -59 33 -78
21 -186 -116 -53 -67 -132 -159 -175 -203 -44 -45 -79 -87 -79 -93 0 -17 38
-51 56 -51 27 0 204 181 322 329 20 26 24 25 84 -11 270 -164 348 -217 461
-312 71 -59 145 -119 164 -132 38 -26 76 -25 116 1 24 16 87 133 148 277 13
32 27 58 30 58 3 0 16 -19 29 -42 82 -148 236 -397 378 -613 91 -137 187 -290
214 -340 54 -101 69 -115 112 -115 38 1 62 18 76 54 9 24 4 40 -34 119 -25 51
-75 142 -111 202 -37 61 -124 205 -193 320 -69 116 -182 305 -252 421 l-126
212 63 132 c60 125 63 133 49 155 -9 13 -24 26 -34 29 -40 13 -68 -10 -111
-93 -23 -45 -45 -81 -50 -81 -4 0 -59 81 -122 181 -308 486 -432 728 -458 888
-12 73 -31 108 -67 121 -45 18 -67 11 -108 -33z m-1580 -1614 c272 -333 384
-477 384 -493 0 -7 -20 -44 -44 -84 -49 -79 -102 -175 -173 -313 l-47 -91 -60
-6 c-34 -3 -106 -8 -161 -12 -139 -7 -390 -32 -510 -49 -55 -8 -125 -17 -155
-20 -30 -3 -63 -8 -73 -11 -12 -4 2 24 44 83 34 48 77 113 97 143 19 30 54 84
77 120 24 36 75 117 115 180 41 63 92 144 115 180 23 36 74 117 115 180 161
253 185 290 191 290 3 0 41 -44 85 -97z m501 -651 c17 -26 57 -87 89 -137 31
-49 72 -114 91 -143 l34 -53 -240 3 c-209 3 -240 5 -235 18 10 27 216 360 223
360 3 0 20 -21 38 -48z"/>
</g>
</svg>
