<?xml version="1.0" standalone="no"?>
<!DOCTYPE svg PUBLIC "-//W3C//DTD SVG 20010904//EN"
 "http://www.w3.org/TR/2001/REC-SVG-20010904/DTD/svg10.dtd">
<svg version="1.0" xmlns="http://www.w3.org/2000/svg"
 width="512.000000pt" height="512.000000pt" viewBox="0 0 512.000000 512.000000"
 preserveAspectRatio="xMidYMid meet">

<g transform="translate(0.000000,512.000000) scale(0.100000,-0.100000)"
fill="#000000" stroke="none">
<path d="M2528 4340 c-58 -17 -193 -112 -300 -209 -54 -50 -425 -459 -441
-487 -10 -18 9 -54 30 -54 10 0 32 14 50 32 18 18 33 27 33 21 0 -21 31 -43
61 -43 16 0 60 -14 97 -31 l67 -31 -115 -39 c-63 -21 -137 -41 -163 -45 -47
-7 -76 -32 -62 -54 3 -6 3 -10 -1 -10 -7 0 -103 43 -252 112 -46 21 -154 68
-240 104 -86 36 -175 74 -198 84 -67 30 -310 110 -336 110 -29 0 -48 -17 -48
-42 0 -20 10 -25 115 -58 39 -13 98 -35 132 -51 34 -16 89 -40 122 -53 32 -14
117 -53 188 -86 313 -149 423 -204 423 -212 0 -4 -21 -8 -47 -8 -27 0 -65 -5
-87 -11 -21 -6 -46 -12 -55 -14 -37 -7 -142 -51 -221 -93 -135 -70 -543 -346
-577 -390 -21 -27 -16 -71 10 -83 19 -9 47 2 187 75 162 83 419 201 503 230
23 8 72 26 110 40 37 14 67 23 67 21 0 -2 16 3 35 11 34 14 35 14 35 -9 0 -14
-11 -32 -27 -44 -44 -32 -146 -188 -139 -211 4 -10 25 -34 49 -53 76 -60 167
-152 167 -168 0 -27 -171 -218 -225 -252 -60 -38 -74 -55 -75 -93 0 -23 19
-48 100 -131 l101 -102 -7 -79 c-6 -79 -6 -79 30 -133 25 -37 36 -64 36 -91 0
-24 9 -49 25 -71 14 -19 38 -61 55 -93 26 -52 29 -70 29 -147 0 -99 16 -145
56 -155 27 -7 231 53 412 121 36 14 67 24 68 23 2 -2 13 -26 25 -55 12 -28 30
-59 41 -69 10 -9 19 -20 19 -23 0 -4 -32 -39 -71 -79 -56 -57 -80 -92 -114
-165 -46 -98 -155 -269 -240 -377 -57 -72 -95 -132 -95 -148 0 -45 97 -55 160
-17 19 12 76 41 125 65 222 105 412 203 507 259 78 47 188 111 223 131 22 12
85 47 140 77 55 31 152 86 215 124 63 37 183 106 265 151 133 74 150 87 153
112 4 35 -20 63 -74 86 -70 30 -102 77 -164 237 -17 43 -34 87 -39 98 -5 11
-17 40 -27 65 -10 25 -29 62 -41 82 -26 42 -30 32 37 91 11 9 20 26 20 37 0
22 40 90 53 90 5 0 61 -37 125 -83 325 -230 671 -406 800 -407 58 0 92 33 92
89 0 32 -6 44 -31 65 -17 14 -41 26 -54 26 -13 0 -61 16 -107 36 -109 48 -170
83 -458 264 -22 14 -78 49 -125 78 -46 29 -97 63 -112 76 l-28 24 30 7 c17 3
37 10 45 14 24 13 24 51 -1 77 -27 28 -12 32 22 5 13 -10 59 -42 101 -70 43
-29 106 -74 139 -101 34 -28 70 -50 79 -50 34 0 70 39 70 75 0 61 -89 137
-337 291 -96 59 -113 73 -118 100 -6 35 -37 54 -86 54 -17 0 -40 5 -52 11 -75
40 -456 304 -718 500 -437 326 -589 418 -720 437 l-52 7 181 186 c100 102 207
206 239 230 32 24 66 51 76 61 11 9 52 33 92 53 64 33 79 37 122 32 57 -7 132
-37 292 -116 250 -125 392 -225 760 -535 148 -125 161 -141 161 -194 0 -50
-19 -166 -44 -272 -21 -86 -21 -164 0 -184 19 -20 68 -21 83 -2 7 8 16 43 22
78 5 35 16 88 24 118 42 152 57 307 35 365 -16 43 -106 130 -255 249 -353 281
-568 412 -893 542 -117 47 -142 54 -200 53 -37 0 -79 -4 -94 -9z m-190 -949
c175 -133 341 -269 335 -275 -4 -3 -17 -6 -29 -6 -13 0 -62 -14 -109 -31 -80
-29 -87 -30 -104 -15 -10 9 -23 16 -30 16 -22 0 -122 50 -126 63 -2 6 -6 64
-10 127 -4 63 -8 130 -11 148 -2 17 -1 32 2 32 3 0 40 -26 82 -59z m-174 -12
c8 -84 8 -179 -1 -178 -5 0 -82 38 -173 84 -172 87 -170 84 -90 98 14 3 52 13
85 22 72 21 123 32 151 34 19 1 22 -6 28 -60z m582 -447 c11 -45 18 -82 15
-82 -11 1 -206 130 -198 131 15 3 23 5 57 16 40 13 80 21 95 18 5 -1 19 -38
31 -83z m204 -22 c52 -40 126 -95 164 -123 l69 -51 -59 -13 c-112 -26 -144
-24 -191 10 -24 17 -43 32 -43 34 0 4 -49 194 -57 218 -5 16 -3 18 8 9 8 -6
57 -44 109 -84z m-744 29 c3 -5 36 -9 74 -9 65 0 74 -3 142 -45 154 -96 273
-182 269 -196 -2 -8 -9 -79 -17 -159 -7 -80 -18 -190 -24 -245 -14 -137 -13
-159 9 -179 27 -24 61 -5 85 47 11 23 55 95 100 160 l80 117 23 -27 c41 -49
55 -93 56 -178 0 -44 -5 -100 -12 -125 -15 -53 -83 -126 -126 -135 -17 -3 -40
-8 -52 -11 -27 -5 -38 -36 -23 -64 8 -16 21 -20 56 -20 60 0 104 22 153 75 57
62 79 112 89 202 l8 78 22 -68 c12 -37 33 -92 47 -123 14 -31 25 -63 25 -70 0
-7 13 -34 30 -60 16 -26 37 -70 46 -98 27 -81 110 -269 138 -314 14 -23 41
-56 60 -74 l34 -32 -86 -46 c-178 -94 -287 -153 -297 -160 -5 -4 -55 -31 -110
-60 -102 -54 -148 -81 -430 -255 -88 -54 -212 -125 -275 -158 -63 -33 -143
-75 -177 -94 -35 -19 -63 -31 -63 -28 0 4 9 19 21 33 79 102 167 239 209 326
44 92 58 111 139 188 50 48 91 91 91 96 0 6 -21 34 -46 64 -50 57 -74 103 -74
140 0 36 -27 68 -58 68 -15 0 -52 -9 -82 -21 -30 -11 -62 -22 -70 -24 -8 -2
-33 -11 -55 -19 -139 -52 -242 -86 -257 -86 -16 0 -18 11 -18 84 0 78 -3 90
-36 153 -20 37 -43 76 -53 87 -9 10 -16 26 -17 35 -1 9 -2 30 -3 47 0 19 -15
48 -36 75 -35 44 -35 44 -29 120 8 95 1 109 -105 214 l-81 80 35 21 c54 32 87
65 171 169 71 89 78 101 82 150 4 52 3 54 -44 105 -27 29 -75 72 -106 97 l-58
44 17 26 17 26 11 -33 c16 -48 41 -63 95 -55 24 4 62 14 85 22 84 31 221 86
250 99 83 37 137 46 151 23z m574 -299 c0 -5 -4 -10 -10 -10 -5 0 -10 5 -10
10 0 6 5 10 10 10 6 0 10 -4 10 -10z m624 -60 c67 -46 70 -50 80 -110 4 -27 0
-41 -18 -64 l-23 -28 -29 18 c-113 72 -164 117 -194 171 -16 31 -26 59 -21 62
5 3 38 4 74 1 56 -4 74 -11 131 -50z"/>
</g>
</svg>
