<?xml version="1.0" standalone="no"?>
<!DOCTYPE svg PUBLIC "-//W3C//DTD SVG 20010904//EN"
 "http://www.w3.org/TR/2001/REC-SVG-20010904/DTD/svg10.dtd">
<svg version="1.0" xmlns="http://www.w3.org/2000/svg"
 width="512.000000pt" height="512.000000pt" viewBox="0 0 512.000000 512.000000"
 preserveAspectRatio="xMidYMid meet">

<g transform="translate(0.000000,512.000000) scale(0.100000,-0.100000)"
fill="#000000" stroke="none">
<path d="M2793 4335 c-44 -19 -48 -50 -35 -258 7 -95 14 -359 18 -587 6 -427
9 -539 19 -695 3 -49 8 -126 11 -170 11 -179 27 -355 54 -600 6 -55 13 -125
16 -155 3 -30 10 -75 14 -100 8 -38 6 -49 -10 -72 -26 -36 -25 -57 3 -67 20
-8 24 -20 36 -102 7 -52 19 -132 27 -178 8 -46 14 -85 14 -87 0 -2 -8 -4 -18
-4 -10 0 -27 -6 -37 -14 -17 -12 -18 -17 -7 -41 10 -22 18 -26 45 -23 28 3 32
0 35 -22 2 -14 14 -61 27 -106 24 -79 47 -114 76 -114 34 0 54 55 24 66 -15 6
-41 86 -47 144 l-3 35 175 -3 c142 -3 179 -1 195 11 17 13 18 18 7 41 l-12 26
-189 0 -190 0 -5 43 c-10 78 -25 212 -31 271 l-6 59 219 -7 c237 -7 248 -5
240 46 -5 33 -45 38 -268 36 l-195 -3 -7 60 c-3 33 -9 98 -13 145 -3 47 -8
100 -11 118 l-6 32 126 0 c116 0 126 1 136 21 22 41 -1 49 -135 49 l-122 0 -7
48 c-14 110 -26 527 -31 1058 -3 399 -9 617 -19 729 -9 88 -17 181 -20 207
l-4 47 42 -5 c70 -8 783 -21 919 -16 l127 4 0 -108 c0 -92 -14 -248 -34 -369
-2 -17 -7 -52 -10 -80 -4 -27 -9 -68 -11 -90 -7 -55 -35 -505 -32 -513 4 -13
-8 -13 -38 -1 -23 10 -128 13 -427 14 -348 0 -399 -2 -413 -16 -20 -19 -10
-48 19 -54 11 -2 170 -6 351 -9 182 -3 344 -7 360 -10 51 -9 119 -10 135 -3
13 6 15 -65 15 -610 1 -340 4 -645 8 -678 13 -103 -8 -50 -77 196 -69 250 -97
326 -123 346 -23 18 -58 16 -77 -3 -16 -15 -41 -92 -50 -149 -11 -75 -16 -114
-21 -160 -3 -27 -10 -90 -16 -140 -6 -49 -13 -195 -16 -322 l-5 -233 23 -9
c17 -7 27 -5 35 5 6 8 14 83 17 176 4 90 8 179 11 199 8 70 17 145 31 244 8
55 17 122 21 150 3 27 10 58 14 70 6 17 9 14 18 -20 28 -104 44 -165 56 -220
47 -212 112 -419 199 -637 45 -111 54 -107 -178 -83 -244 26 -257 26 -281 10
-13 -8 -24 -21 -24 -28 0 -32 27 -44 125 -56 188 -22 173 -16 168 -64 -2 -23
0 -98 4 -167 8 -121 9 -125 32 -128 39 -6 45 10 41 120 -2 57 -4 126 -4 153
l-1 50 130 0 c126 0 129 1 141 24 15 28 -1 88 -71 266 -97 248 -122 326 -93
297 18 -18 63 -14 82 7 16 17 17 88 21 957 1 517 5 959 9 984 3 25 8 77 11
115 4 39 15 147 26 240 21 191 25 382 8 419 -7 14 -19 28 -28 32 -9 4 -284 10
-612 14 -328 4 -600 10 -605 13 -5 3 -24 -1 -41 -8z"/>
<path d="M3181 3910 c-182 -4 -215 -7 -224 -21 -6 -9 -8 -23 -5 -31 8 -19 187
-28 559 -28 253 0 267 1 284 20 15 17 16 24 7 45 l-12 25 -197 -2 c-109 -2
-294 -5 -412 -8z"/>
<path d="M2457 3519 c-21 -6 -194 -153 -252 -215 -28 -30 -161 -139 -264 -216
-126 -95 -235 -158 -274 -158 -41 0 -78 -37 -77 -78 0 -21 -2 -143 -3 -272 -2
-129 0 -300 4 -380 4 -80 10 -203 13 -275 6 -131 18 -313 36 -570 5 -77 13
-185 16 -240 12 -207 18 -247 36 -259 14 -8 21 -7 34 6 15 15 16 40 5 310 -7
161 -16 390 -21 508 -9 247 -12 1022 -3 1092 5 45 7 48 67 79 66 36 208 130
326 218 91 68 107 82 238 200 l104 94 -7 -679 c-4 -373 -9 -682 -11 -686 -3
-4 -5 -270 -6 -592 l0 -584 -312 -7 c-171 -4 -520 -5 -776 -3 l-465 3 -3 -27
c-4 -34 0 -35 178 -44 80 -4 163 -8 185 -9 54 -3 339 -16 450 -20 50 -2 232
-6 405 -10 173 -3 324 -8 335 -10 13 -3 26 -18 33 -39 25 -68 116 -67 135 0
l9 32 527 -5 526 -6 28 22 c32 27 36 68 8 102 l-19 24 -545 -3 -544 -2 3 377
c1 208 -1 572 -6 808 -4 237 -11 657 -15 935 -8 526 -11 557 -52 578 -10 5
-30 6 -46 1z"/>
<path d="M3585 3519 c-55 -4 -202 -8 -327 -9 -238 -1 -254 -5 -246 -47 3 -16
21 -19 163 -26 188 -9 570 -1 596 14 20 10 24 35 11 56 -11 17 -76 21 -197 12z"/>
<path d="M2251 2806 c-13 -15 -27 -270 -17 -310 5 -22 11 -27 34 -24 l27 3 5
155 c3 85 1 163 -3 173 -9 20 -30 22 -46 3z"/>
<path d="M1919 2703 c-9 -10 -15 -49 -18 -101 -3 -73 -1 -88 14 -98 13 -9 23
-10 36 -3 17 8 19 22 19 108 0 81 -3 100 -16 105 -21 8 -20 8 -35 -11z"/>
<path d="M3035 2564 c-67 -10 -75 -14 -75 -40 0 -13 6 -26 13 -29 6 -2 152 -6
322 -9 314 -5 393 -13 422 -41 8 -9 22 -14 30 -11 8 3 18 6 23 6 18 0 21 41 6
65 -36 54 -64 59 -401 61 -170 1 -323 0 -340 -2z"/>
<path d="M2241 2273 c-5 -10 -12 -77 -16 -149 -7 -139 -1 -174 33 -174 37 0
42 19 42 176 0 129 -2 153 -16 158 -25 9 -33 7 -43 -11z"/>
<path d="M1952 2172 c-9 -7 -12 -41 -10 -138 3 -127 3 -129 27 -132 13 -2 28
2 32 10 12 19 11 226 -1 249 -11 20 -27 24 -48 11z"/>
<path d="M1292 2008 c-11 -14 -20 -57 -26 -123 -17 -171 -31 -299 -41 -375 -6
-39 -10 -75 -25 -200 -6 -47 -15 -116 -20 -155 -5 -38 -9 -75 -10 -81 0 -7
-15 -15 -34 -18 -18 -4 -41 -15 -51 -26 -32 -36 -17 -110 22 -110 8 0 24 11
37 23 18 19 28 22 42 14 12 -7 23 -6 35 2 38 23 48 14 51 -45 3 -64 23 -88 56
-68 12 8 18 27 20 73 l3 61 47 1 c148 2 190 35 147 119 -15 28 -42 126 -64
230 -7 30 -16 73 -21 95 -5 22 -16 94 -24 160 -33 266 -39 302 -52 359 -7 33
-19 63 -26 67 -19 13 -54 11 -66 -3z m48 -478 c0 -48 52 -304 78 -385 l20 -60
-41 -8 c-26 -6 -49 -5 -65 2 -20 9 -29 8 -49 -5 -14 -9 -29 -12 -34 -7 -7 7
26 237 65 453 2 14 5 33 5 43 2 36 21 5 21 -33z"/>
<path d="M2290 1730 c-21 -13 -28 -101 -22 -253 5 -136 5 -137 30 -144 28 -7
57 21 47 45 -3 8 -5 87 -5 177 0 148 -2 165 -18 174 -10 5 -24 6 -32 1z"/>
<path d="M2006 1658 c-19 -26 -23 -193 -5 -203 5 -4 21 -4 35 -1 24 6 24 8 24
110 0 85 -3 105 -16 110 -22 8 -21 9 -38 -16z"/>
</g>
</svg>
